<svg width="21" height="25" viewBox="0 0 21 25" fill="none" xmlns="http://www.w3.org/2000/svg">
<path d="M14.362 9.72C16.334 10.128 17.8413 10.944 18.884 12.168C19.9493 13.3693 20.482 14.8313 20.482 16.554C20.482 17.9593 20.0967 19.2627 19.326 20.464C18.578 21.6653 17.422 22.64 15.858 23.388C14.3167 24.1133 12.4013 24.476 10.112 24.476C8.43467 24.476 6.76867 24.272 5.114 23.864C3.482 23.456 2.06533 22.878 0.864 22.13L3.312 17.064C4.24133 17.6987 5.284 18.186 6.44 18.526C7.61867 18.866 8.77467 19.036 9.908 19.036C11.064 19.036 11.982 18.8207 12.662 18.39C13.342 17.9593 13.682 17.3473 13.682 16.554C13.682 15.0127 12.4693 14.242 10.044 14.242H7.222V9.992L11.472 5.402H2.088V0.199998H19.292V4.416L14.362 9.72Z" fill="#82ADB0"/>
</svg>
