<svg width="21" height="25" viewBox="0 0 21 25" fill="none" xmlns="http://www.w3.org/2000/svg">
<path d="M20.55 19.662V25H2.02V20.784L10.928 12.454C11.7893 11.638 12.3673 10.9467 12.662 10.38C12.9567 9.79067 13.104 9.20133 13.104 8.612C13.104 7.84133 12.8433 7.24067 12.322 6.81C11.8007 6.37933 11.0413 6.164 10.044 6.164C9.16 6.164 8.344 6.368 7.596 6.776C6.87067 7.16133 6.27 7.728 5.794 8.476L0.796 5.688C1.72533 4.14667 3.02867 2.934 4.706 2.05C6.38333 1.166 8.36667 0.723998 10.656 0.723998C12.4693 0.723998 14.0673 1.01867 15.45 1.608C16.8553 2.19733 17.9433 3.04733 18.714 4.158C19.5073 5.246 19.904 6.51533 19.904 7.966C19.904 9.258 19.6207 10.482 19.054 11.638C18.51 12.7713 17.4447 14.0633 15.858 15.514L11.37 19.662H20.55Z" fill="#82ADB0"/>
</svg>
